<?xml version="1.0" standalone="no"?>
<!DOCTYPE svg PUBLIC "-//W3C//DTD SVG 20010904//EN"
 "http://www.w3.org/TR/2001/REC-SVG-20010904/DTD/svg10.dtd">
<svg version="1.0" xmlns="http://www.w3.org/2000/svg"
 width="512.000000pt" height="512.000000pt" viewBox="0 0 512.000000 512.000000"
 preserveAspectRatio="xMidYMid meet">

<g transform="translate(0.000000,512.000000) scale(0.100000,-0.100000)"
fill="#000000" stroke="none">
<path d="M783 3868 c12 -10 30 -18 40 -18 9 0 17 -5 17 -10 0 -6 8 -14 18 -17
9 -4 22 -12 29 -17 32 -28 43 -36 48 -36 3 0 22 -18 44 -40 21 -22 42 -40 45
-40 9 0 96 -93 96 -102 0 -5 7 -8 15 -8 8 0 15 -7 15 -15 0 -8 5 -15 10 -15 6
0 10 -6 10 -12 0 -7 14 -27 30 -45 17 -18 30 -36 30 -42 0 -5 4 -11 8 -13 4
-1 28 -34 52 -73 25 -38 51 -79 58 -90 7 -11 15 -28 18 -37 4 -10 10 -18 14
-18 4 0 11 -11 14 -25 4 -14 11 -25 16 -25 6 0 10 -9 10 -19 0 -11 7 -26 15
-35 8 -8 15 -18 15 -22 0 -13 63 -139 72 -142 4 -2 8 -15 8 -28 0 -14 7 -27
15 -30 8 -4 15 -14 15 -24 0 -9 11 -37 23 -61 13 -24 27 -56 31 -71 3 -16 11
-28 16 -28 6 0 10 -7 10 -16 0 -9 7 -29 15 -45 8 -16 22 -42 30 -58 8 -16 15
-36 15 -45 0 -9 5 -16 10 -16 6 0 10 -9 10 -19 0 -11 7 -26 15 -35 8 -8 15
-21 15 -29 0 -8 7 -20 15 -27 8 -7 15 -20 15 -30 0 -10 7 -23 15 -30 8 -7 15
-18 15 -25 0 -16 29 -73 41 -80 5 -4 9 -15 9 -26 0 -11 7 -22 15 -25 8 -4 15
-14 15 -25 0 -10 6 -22 13 -26 7 -4 21 -25 32 -45 11 -21 22 -38 26 -38 4 0 9
-8 13 -17 7 -23 25 -50 54 -82 12 -14 22 -29 22 -33 0 -4 14 -21 30 -38 17
-17 30 -35 30 -40 0 -6 7 -10 15 -10 8 0 15 -5 15 -11 0 -14 55 -69 69 -69 6
0 11 -7 11 -15 0 -8 6 -15 14 -15 8 0 16 -3 18 -8 5 -13 85 -72 97 -72 6 0 11
-4 11 -9 0 -5 10 -13 23 -17 12 -4 24 -10 27 -14 10 -13 137 -70 157 -70 11 0
26 -7 33 -15 7 -9 29 -15 50 -15 21 0 40 -4 42 -9 5 -15 132 -32 298 -40 85
-4 156 -6 158 -6 1 1 -15 10 -35 21 -21 10 -42 22 -48 27 -5 4 -37 26 -70 50
-67 48 -255 225 -255 240 0 5 -11 20 -25 33 -14 13 -25 27 -25 31 0 5 -12 22
-27 39 -16 17 -37 46 -47 65 -11 19 -22 36 -25 39 -9 7 -27 39 -53 90 -13 25
-26 47 -29 50 -4 3 -9 15 -13 28 -4 12 -12 22 -17 22 -5 0 -9 9 -9 19 0 11 -7
26 -15 35 -8 8 -15 21 -15 29 0 8 -7 20 -15 27 -8 7 -15 17 -15 23 0 18 -33
87 -42 87 -4 0 -8 11 -8 25 0 14 -7 28 -15 31 -8 4 -15 16 -15 28 0 11 -7 30
-15 40 -8 11 -15 28 -15 38 0 10 -4 18 -10 18 -5 0 -10 9 -10 19 0 11 -7 26
-15 35 -8 8 -15 20 -15 26 0 7 -7 25 -15 41 -8 16 -22 42 -30 58 -8 16 -15 36
-15 45 0 9 -4 16 -10 16 -5 0 -10 9 -10 19 0 11 -7 26 -15 35 -8 8 -15 21 -15
29 0 8 -7 20 -15 27 -8 7 -15 17 -15 23 0 18 -61 137 -71 137 -5 0 -9 9 -9 20
0 11 -7 23 -15 26 -8 4 -15 14 -15 24 0 11 -4 21 -9 25 -6 3 -20 26 -32 50
-12 25 -26 45 -30 45 -3 0 -9 8 -13 18 -8 24 -27 52 -53 78 -13 11 -23 25 -23
30 0 10 -146 163 -198 207 -17 15 -36 27 -42 27 -5 0 -10 4 -10 9 0 4 -26 24
-57 43 -194 116 -378 165 -630 170 -137 3 -142 2 -120 -14z m207 -28 c0 -5 -4
-10 -10 -10 -5 0 -10 5 -10 10 0 6 5 10 10 10 6 0 10 -4 10 -10z m170 -30 c0
-11 -50 -11 -95 0 -24 6 -17 8 33 9 35 0 62 -3 62 -9z m98 -27 c-10 -2 -28 -2
-40 0 -13 2 -5 4 17 4 22 1 32 -1 23 -4z m92 -23 c0 -5 -12 -10 -27 -10 -22 0
-25 2 -13 10 20 13 40 13 40 0z m70 -30 c0 -5 -9 -10 -20 -10 -11 0 -20 5 -20
10 0 6 9 10 20 10 11 0 20 -4 20 -10z m50 -30 c0 -5 -7 -7 -15 -4 -8 4 -15 8
-15 10 0 2 7 4 15 4 8 0 15 -4 15 -10z m90 -50 c0 -5 -4 -10 -10 -10 -5 0 -10
5 -10 10 0 6 5 10 10 10 6 0 10 -4 10 -10z m135 -110 c3 -5 1 -10 -4 -10 -6 0
-11 5 -11 10 0 6 2 10 4 10 3 0 8 -4 11 -10z"/>
<path d="M1119 3210 c-31 -10 -65 -23 -75 -28 -11 -5 -37 -18 -59 -28 -181
-85 -365 -266 -453 -449 -140 -289 -117 -629 59 -889 154 -226 399 -378 694
-431 76 -13 325 -7 405 11 93 21 196 57 275 96 83 42 185 110 185 123 0 6 -19
27 -41 46 -39 32 -137 140 -187 204 -39 52 -112 155 -112 159 0 2 -24 43 -53
92 -51 87 -123 227 -226 447 -28 59 -51 109 -51 112 0 8 -74 166 -146 310 -87
174 -129 245 -147 244 -6 0 -37 -9 -68 -19z"/>
</g>
</svg>
